<?xml version="1.0" standalone="no"?>
<!DOCTYPE svg PUBLIC "-//W3C//DTD SVG 20010904//EN"
 "http://www.w3.org/TR/2001/REC-SVG-20010904/DTD/svg10.dtd">
<svg version="1.0" xmlns="http://www.w3.org/2000/svg"
 width="262.000000pt" height="262.000000pt" viewBox="0 0 262.000000 262.000000"
 preserveAspectRatio="xMidYMid meet">
<metadata>
Created by potrace 1.11, written by Peter Selinger 2001-2013
</metadata>
<g transform="translate(0.000000,262.000000) scale(0.100000,-0.100000)"
fill="#000000" stroke="none">
<path d="M374 2210 c-55 -11 -107 -40 -169 -94 -50 -43 -87 -104 -114 -187
-15 -48 -16 -1191 0 -1240 29 -92 63 -142 146 -218 32 -29 105 -60 167 -72 34
-6 382 -9 932 -7 838 3 881 4 924 22 25 10 59 30 77 43 17 12 35 23 40 23 13
0 82 81 98 114 46 98 45 86 45 715 0 553 -1 601 -18 649 -10 28 -26 60 -35 70
-9 10 -17 23 -17 28 0 12 -53 67 -93 97 -17 14 -58 34 -89 46 -57 20 -66 21
-955 20 -494 -1 -917 -5 -939 -9z m1810 -191 c21 -6 58 -29 81 -51 36 -32 46
-49 54 -91 6 -32 9 -262 7 -597 -3 -590 -3 -586 -58 -637 -60 -55 -28 -53
-968 -53 -947 0 -908 -2 -966 57 -56 59 -55 45 -54 675 0 569 1 581 21 609 30
43 85 81 127 90 62 12 1712 10 1756 -2z"/>
<path d="M878 1438 c-3 -425 -4 -466 -21 -496 -24 -43 -76 -66 -139 -60 -84 9
-115 57 -125 194 l-6 84 -113 0 -114 0 0 -47 c1 -142 60 -309 125 -359 57 -43
143 -64 261 -64 162 0 254 41 317 141 51 84 57 141 57 627 l0 442 -119 0 -120
0 -3 -462z"/>
<path d="M1380 1305 l0 -595 120 0 120 0 0 250 0 250 28 0 c15 0 132 1 260 1
l232 1 0 99 0 99 -260 0 -260 0 0 145 0 145 300 0 300 0 0 100 0 100 -420 0
-420 0 0 -595z"/>
</g>
</svg>
